<?xml version="1.0" encoding="utf-8"?>
<svg xmlns="http://www.w3.org/2000/svg" viewBox="0 0 500 500" xmlns:bx="https://boxy-svg.com">
  <defs>
    <radialGradient gradientUnits="userSpaceOnUse" cx="337.292" cy="354.65" r="109" id="gradient-1" gradientTransform="matrix(1.571921, 0, 0, 1.497973, -206.769488, -162.750708)">
      <stop offset="0" style="stop-color: rgb(26.667% 44.706% 76.863%)"/>
      <stop offset="1" style="stop-color: rgb(0% 26.872% 56.398%)"/>
    </radialGradient>
    <radialGradient gradientUnits="userSpaceOnUse" cx="473.792" cy="356.65" r="27.5" id="gradient-0" spreadMethod="pad" gradientTransform="matrix(1.611026, 0, 0, 1.416765, -226.22713, -129.566809)">
      <stop offset="0" style="stop-color: rgb(26.667% 44.706% 76.863%)"/>
      <stop offset="1" style="stop-color: rgb(0% 26.872% 56.398%)"/>
    </radialGradient>
  </defs>
  <g transform="matrix(1, 0, 0, 1, -114.010911, -108.086778)">
    <path d="M 152.088 295.483 C 152.088 246.877 193.437 207.473 244.443 207.473 L 402.412 207.473 C 453.417 207.473 494.766 246.877 494.766 295.483 L 494.766 441.527 C 494.766 490.133 453.417 529.537 402.412 529.537 L 244.443 529.537 C 193.437 529.537 152.088 490.133 152.088 441.527 L 152.088 295.483 Z" fill-rule="evenodd" style="fill: url(&quot;#gradient-1&quot;);"/>
    <path d="M 581.368 467.103 L 492.762 438.814 L 492.762 312.629 L 581.368 284.34 L 581.368 467.103 Z" fill-rule="evenodd" style="fill: url(&quot;#gradient-0&quot;); paint-order: fill; stroke-width: 0px; stroke-linecap: round; stroke-miterlimit: 30;"/>
    <path d="M 299.659 256.515 C 274.308 279.912 226.182 324.324 200.833 347.72 C 173.761 372.702 257.502 517.522 293.166 484.608 C 326.037 454.273 284.048 437.5 338.832 386.939 C 393.618 336.381 410.687 376.155 443.557 345.818 C 479.22 312.905 326.73 231.532 299.659 256.515 Z" stroke-width="5.63412" stroke-miterlimit="8" fill-rule="evenodd" fill="#ED7D31" stroke="#ED7D31" style=""/>
    <g transform="matrix(0, -1.497973, 1.571921, 0, -124.7968, 227.781984)" style="transform-origin: 378.695px 153.199px;">
      <path d="M 361.821 147.703 C 361.019 144.197 363.089 140.733 366.445 139.965 C 369.801 139.197 373.171 141.417 373.973 144.922 C 374.775 148.428 372.705 151.892 369.35 152.66 C 365.994 153.427 362.623 151.208 361.821 147.703 Z" stroke-width="1.33333" stroke-miterlimit="8" fill-rule="evenodd" fill="#4472C4" stroke="#4472C4"/>
      <path d="M 383.416 147.031 C 382.614 143.526 384.684 140.062 388.04 139.294 C 391.396 138.526 394.766 140.745 395.568 144.251 C 396.37 147.756 394.3 151.221 390.944 151.988 C 387.589 152.756 384.218 150.537 383.416 147.031 Z" stroke-width="1.33333" stroke-miterlimit="8" fill-rule="evenodd" fill="#4472C4" stroke="#4472C4"/>
      <path style="fill: none; stroke-linecap: round; stroke-width: 5px; stroke: rgb(32, 78, 170);" d="M 368.477 162.23 L 370.30133333333333 163.536 C 372.12566666666663 164.84199999999998 375.7743333333333 167.45399999999998 379.3775 167.244 C 382.98066666666665 167.034 386.53833333333336 164.00199999999998 388.3171666666667 162.48600000000002 L 390.096 160.97" bx:d="M 368.477 162.23 U 379.423 170.066 U 390.096 160.97 1@82cf8b41"/>
    </g>
    <g transform="matrix(1.571921, 0, 0, 1.497973, -37.64016, 147.931871)" style="transform-origin: 378.694px 153.199px;">
      <path d="M 361.821 147.703 C 361.019 144.197 363.089 140.733 366.445 139.965 C 369.801 139.197 373.171 141.417 373.973 144.922 C 374.775 148.428 372.705 151.892 369.35 152.66 C 365.994 153.427 362.623 151.208 361.821 147.703 Z" stroke-width="1.33333" stroke-miterlimit="8" fill-rule="evenodd" fill="#4472C4" stroke="#4472C4"/>
      <path d="M 383.416 147.031 C 382.614 143.526 384.684 140.062 388.04 139.294 C 391.396 138.526 394.766 140.745 395.568 144.251 C 396.37 147.756 394.3 151.221 390.944 151.988 C 387.589 152.756 384.218 150.537 383.416 147.031 Z" stroke-width="1.33333" stroke-miterlimit="8" fill-rule="evenodd" fill="#4472C4" stroke="#4472C4"/>
      <path style="fill: none; stroke-linecap: round; stroke-width: 5px; stroke: rgb(32, 78, 170);" d="M 368.477 162.23 L 370.30133333333333 163.536 C 372.12566666666663 164.84199999999998 375.7743333333333 167.45399999999998 379.3775 167.244 C 382.98066666666665 167.034 386.53833333333336 164.00199999999998 388.3171666666667 162.48600000000002 L 390.096 160.97" bx:d="M 368.477 162.23 U 379.423 170.066 U 390.096 160.97 1@82cf8b41"/>
    </g>
  </g>
</svg>