<?xml version="1.0" encoding="utf-8"?>
<svg xmlns="http://www.w3.org/2000/svg" viewBox="0 0 500 500">
  <defs>
    <radialGradient gradientUnits="userSpaceOnUse" cx="337.292" cy="354.65" r="109" id="gradient-1">
      <stop offset="0" style="stop-color: rgb(26.667% 44.706% 76.863%)"/>
      <stop offset="1" style="stop-color: rgb(0% 26.872% 56.398%)"/>
    </radialGradient>
    <radialGradient gradientUnits="userSpaceOnUse" cx="473.792" cy="356.65" r="27.5" id="gradient-0" spreadMethod="pad">
      <stop offset="0" style="stop-color: rgb(26.667% 44.706% 76.863%)"/>
      <stop offset="1" style="stop-color: rgb(0% 26.872% 56.398%)"/>
    </radialGradient>
  </defs>
  <g transform="matrix(1, 0, 0, 1, -107.61094, -116.561135)">
    <path d="M 228.292 305.903 C 228.292 273.455 254.597 247.15 287.045 247.15 L 387.539 247.15 C 419.987 247.15 446.292 273.455 446.292 305.903 L 446.292 403.397 C 446.292 435.845 419.987 462.15 387.539 462.15 L 287.045 462.15 C 254.597 462.15 228.292 435.845 228.292 403.397 L 228.292 305.903 Z" fill-rule="evenodd" style="fill: url(&quot;#gradient-1&quot;);"/>
    <path d="M 501.292 421.15 L 446.292 401.183 L 446.292 312.117 L 501.292 292.15 L 501.292 421.15 Z" fill-rule="evenodd" style="fill: url(&quot;#gradient-0&quot;); paint-order: fill; stroke-width: 0px; stroke-miterlimit: 20.12;"/>
    <path d="M 368.975 301.007 C 366.051 303.878 361.62 303.837 358.749 300.913 C 355.879 297.989 355.92 293.558 358.843 290.688 C 361.767 287.817 366.198 287.858 369.069 290.782 C 371.94 293.706 371.899 298.137 368.975 301.007 Z M 368.786 321.459 C 365.863 324.329 361.431 324.288 358.561 321.364 C 355.69 318.441 355.731 314.009 358.655 311.139 C 361.579 308.268 366.01 308.309 368.881 311.233 C 371.751 314.157 371.71 318.588 368.786 321.459 Z M 348.335 321.27 C 345.411 324.141 340.98 324.1 338.11 321.176 C 335.239 318.252 335.28 313.821 338.204 310.951 C 341.128 308.08 345.559 308.121 348.429 311.045 C 351.3 313.969 351.259 318.4 348.335 321.27 Z M 338.392 290.499 C 341.316 287.629 345.747 287.67 348.618 290.594 C 351.488 293.517 351.448 297.949 348.524 300.819 C 345.6 303.69 341.169 303.649 338.298 300.725 C 335.427 297.801 335.468 293.37 338.392 290.499 Z M 301.928 363.453 L 295.048 370.207 L 301.802 377.087 C 303.66 378.979 303.631 382.047 301.74 383.904 C 299.848 385.762 296.78 385.733 294.922 383.841 L 288.168 376.962 L 281.288 383.716 C 279.396 385.573 276.329 385.545 274.471 383.653 C 272.614 381.761 272.642 378.694 274.534 376.836 L 281.414 370.082 L 274.66 363.202 C 272.802 361.31 272.831 358.242 274.723 356.385 C 276.614 354.528 279.682 354.556 281.54 356.448 L 288.294 363.327 L 295.174 356.573 C 297.066 354.716 300.133 354.744 301.991 356.636 C 303.848 358.528 303.82 361.596 301.928 363.453 Z M 319.944 257.946 C 299.648 277.871 320.099 278.059 290.516 307.103 C 260.933 336.146 261.121 315.695 240.826 335.62 C 219.154 356.896 286.194 480.231 314.746 452.2 C 341.061 426.365 307.445 412.08 351.304 369.021 C 395.163 325.963 408.828 359.836 435.143 334.001 C 463.694 305.97 341.615 236.67 319.944 257.946 Z" stroke-width="5.63412" stroke-miterlimit="8" fill-rule="evenodd" fill="#ED7D31" stroke="#ED7D31"/>
    <path d="M 274.186 401.522 C 258.211 393.271 251.664 374.184 259.563 358.892 C 267.463 343.599 286.817 337.891 302.792 346.143 C 318.767 354.395 325.314 373.481 317.414 388.774 C 309.515 404.066 290.161 409.774 274.186 401.522 Z" fill-rule="evenodd" fill="#ED7D31"/>
    <path d="M 272.557 388.144 C 269.362 386.494 268.052 382.677 269.632 379.618 C 271.212 376.56 275.083 375.418 278.278 377.068 C 281.473 378.719 282.782 382.536 281.202 385.594 C 279.623 388.653 275.752 389.795 272.557 388.144 Z" stroke-width="1.33333" stroke-miterlimit="8" fill-rule="evenodd" fill="#4472C4" stroke="#4472C4"/>
    <path d="M 283.907 366.17 C 280.712 364.519 279.403 360.702 280.983 357.644 C 282.563 354.585 286.433 353.444 289.628 355.094 C 292.823 356.744 294.133 360.561 292.553 363.62 C 290.973 366.679 287.102 367.82 283.907 366.17 Z" stroke-width="1.33333" stroke-miterlimit="8" fill-rule="evenodd" fill="#4472C4" stroke="#4472C4"/>
    <path d="M 301.969 366.89 C 307.732 372.309 306.323 380.668 298.82 385.561 C 296.468 387.095 293.687 388.161 290.75 388.656 L 288.385 375.749 L 301.969 366.89 Z" fill-rule="evenodd" fill="#ED7D31"/>
    <path d="M 301.969 366.89 C 307.732 372.309 306.323 380.668 298.82 385.561 C 296.468 387.095 293.687 388.161 290.75 388.656" stroke-width="6" stroke-miterlimit="8" fill-rule="evenodd" fill="none" stroke="#4472C4"/>
    <path d="M 328.048 314.374 C 324.038 296.847 334.388 279.526 351.167 275.687 C 367.946 271.848 384.798 282.945 388.809 300.472 C 392.819 318 382.468 335.321 365.689 339.16 C 348.911 342.998 332.058 331.902 328.048 314.374 Z" fill-rule="evenodd" fill="#ED7D31"/>
    <path d="M 337.213 304.494 C 336.411 300.988 338.481 297.524 341.837 296.756 C 345.193 295.988 348.563 298.208 349.365 301.713 C 350.167 305.219 348.097 308.683 344.742 309.451 C 341.386 310.218 338.015 307.999 337.213 304.494 Z" stroke-width="1.33333" stroke-miterlimit="8" fill-rule="evenodd" fill="#4472C4" stroke="#4472C4"/>
    <path d="M 361.323 298.977 C 360.521 295.472 362.591 292.008 365.947 291.24 C 369.303 290.472 372.673 292.691 373.475 296.197 C 374.277 299.702 372.207 303.167 368.851 303.934 C 365.496 304.702 362.125 302.483 361.323 298.977 Z" stroke-width="1.33333" stroke-miterlimit="8" fill-rule="evenodd" fill="#4472C4" stroke="#4472C4"/>
    <path d="M 372.432 313.237 C 372.014 321.136 364.72 325.456 356.14 322.884 C 353.45 322.078 350.841 320.643 348.567 318.718 L 356.898 308.581 L 372.432 313.237 Z" fill-rule="evenodd" fill="#ED7D31"/>
    <path d="M 372.432 313.237 C 372.014 321.136 364.72 325.456 356.14 322.884 C 353.45 322.078 350.841 320.643 348.567 318.718" stroke-width="6" stroke-miterlimit="8" fill-rule="evenodd" fill="none" stroke="#4472C4"/>
  </g>
</svg>
